<?xml version="1.0" encoding="UTF-8" standalone="no"?>
<!-- Created with Inkscape (http://www.inkscape.org/) -->

<svg
   width="50mm"
   height="50mm"
   viewBox="0 0 50 50"
   version="1.1"
   id="svg5"
   inkscape:version="1.1.1 (3bf5ae0d25, 2021-09-20)"
   sodipodi:docname="breakfast.svg"
   xmlns:inkscape="http://www.inkscape.org/namespaces/inkscape"
   xmlns:sodipodi="http://sodipodi.sourceforge.net/DTD/sodipodi-0.dtd"
   xmlns="http://www.w3.org/2000/svg"
   xmlns:svg="http://www.w3.org/2000/svg">
  <sodipodi:namedview
     id="namedview7"
     pagecolor="#ffffff"
     bordercolor="#666666"
     borderopacity="1.0"
     inkscape:pageshadow="2"
     inkscape:pageopacity="0.0"
     inkscape:pagecheckerboard="0"
     inkscape:document-units="mm"
     showgrid="true"
     inkscape:zoom="3.1108586"
     inkscape:cx="115.72368"
     inkscape:cy="113.95568"
     inkscape:window-width="2560"
     inkscape:window-height="1351"
     inkscape:window-x="1911"
     inkscape:window-y="-9"
     inkscape:window-maximized="1"
     inkscape:current-layer="layer1"
     width="50mm">
    <inkscape:grid
       type="xygrid"
       id="grid828" />
  </sodipodi:namedview>
  <defs
     id="defs2">
    <inkscape:path-effect
       effect="spiro"
       id="path-effect1127"
       is_visible="true"
       lpeversion="1" />
    <inkscape:path-effect
       effect="spiro"
       id="path-effect13289"
       is_visible="true"
       lpeversion="1" />
  </defs>
  <g
     inkscape:label="Слой 1"
     inkscape:groupmode="layer"
     id="layer1">
    <path
       style="fill:#cccccc;stroke:none;stroke-width:0.482621px;stroke-linecap:butt;stroke-linejoin:miter;stroke-opacity:1"
       d="M 14.265342,38.689175 C 12.015499,37.542986 10.299078,35.474042 9.3657802,33.127875 8.4324827,30.781708 8.2490607,28.176686 8.6052291,25.676948 9.248874,21.159582 11.749244,16.852217 15.5971,14.399692 c 2.414769,-1.539112 5.264643,-2.317228 8.121414,-2.514298 2.85677,-0.19707 5.728588,0.167223 8.525961,0.779333 1.477182,0.323231 2.946477,0.718141 4.327027,1.335091 1.380549,0.61695 2.675376,1.46498 3.67598,2.598707 1.000604,1.133726 1.69377,2.567191 1.804199,4.075286 0.11043,1.508094 -0.399304,3.081609 -1.483519,4.135659 -0.753429,0.732467 -1.74003,1.188284 -2.7549,1.460688 -1.014869,0.272405 -2.066584,0.373117 -3.111863,0.480615 -1.045279,0.107498 -2.09671,0.224164 -3.10301,0.526692 -1.006301,0.302529 -1.974923,0.804197 -2.683375,1.580251 -0.675713,0.74019 -1.079668,1.686933 -1.391142,2.639537 -0.311474,0.952603 -0.54416,1.933545 -0.939495,2.854512 -0.962487,2.242194 -2.908498,4.035378 -5.21302,4.837246 -2.304522,0.801868 -4.931857,0.607796 -7.106015,-0.499836 z"
       id="path13287"
       inkscape:path-effect="#path-effect13289"
       inkscape:original-d="M 14.265342,38.689175 C 10.158447,40.134526 10.49245,30.014808 8.6052291,25.676948 6.7179931,21.339092 13.267002,18.159229 15.5971,14.399692 c 2.330127,-3.759537 11.098781,-1.156194 16.647375,-1.734965 5.548623,-0.578772 5.549647,8.096942 8.323687,12.144743 2.774056,4.047795 -7.768253,2.699281 -11.653148,4.048246 -3.884923,1.348967 -1.553232,3.663147 -2.330637,5.494049 -0.777407,1.830901 -8.212183,2.892055 -12.319035,4.33741 z" />
    <path
       style="fill:#f9f9f9;stroke:none;stroke-width:0.482621px;stroke-linecap:butt;stroke-linejoin:miter;stroke-opacity:1"
       d="m 15.875,37.041667 c -2.249843,-1.146189 -3.966264,-3.215133 -4.899562,-5.5613 -0.933297,-2.346167 -1.1167185,-4.951189 -0.76055,-7.450927 0.643645,-4.517366 3.144014,-8.824731 6.99187,-11.277256 2.414769,-1.539112 5.264643,-2.317228 8.121414,-2.514298 2.85677,-0.197071 5.728588,0.167223 8.525961,0.779333 1.477182,0.323231 2.946477,0.718141 4.327027,1.335091 1.380549,0.61695 2.675375,1.46498 3.675979,2.598707 1.000604,1.133726 1.693771,2.567191 1.8042,4.075286 0.11043,1.508094 -0.399304,3.081609 -1.483519,4.135659 -0.753429,0.732467 -1.74003,1.188284 -2.7549,1.460689 -1.014869,0.272404 -2.066584,0.373116 -3.111863,0.480614 -1.045279,0.107499 -2.09671,0.224164 -3.10301,0.526693 -1.0063,0.302528 -1.974923,0.804196 -2.683375,1.58025 -0.675713,0.74019 -1.079668,1.686933 -1.391142,2.639536 -0.311475,0.952604 -0.544161,1.933546 -0.939496,2.854512 -0.962487,2.242193 -2.908498,4.035378 -5.21302,4.837246 -2.304521,0.801868 -4.931856,0.607796 -7.106014,-0.499835 z"
       id="path13287-9"
       inkscape:path-effect="#path-effect1127"
       inkscape:original-d="m 15.875,37.041667 c -4.106896,1.445351 -3.772892,-8.674368 -5.660112,-13.012227 -1.8872364,-4.337856 4.661772,-7.517719 6.99187,-11.277256 2.330126,-3.7595373 11.098781,-1.156194 16.647375,-1.734965 5.548623,-0.578773 5.549646,8.096942 8.323687,12.144743 2.774056,4.047795 -7.768253,2.69928 -11.653148,4.048246 -3.884923,1.348967 -1.553232,3.663147 -2.330638,5.494048 -0.777407,1.830902 -8.212182,2.892056 -12.319034,4.337411 z" />
    <ellipse
       style="fill:#d4aa00;fill-opacity:1;fill-rule:evenodd;stroke:none;stroke-width:0.0797574;stroke-miterlimit:4;stroke-dasharray:none;stroke-opacity:1"
       id="path13491"
       cx="19.839005"
       cy="27.282475"
       rx="6.0136628"
       ry="5.925622" />
    <ellipse
       style="fill:#ffcc00;fill-opacity:1;fill-rule:evenodd;stroke:none;stroke-width:0.0827694;stroke-miterlimit:4;stroke-dasharray:none;stroke-opacity:1"
       id="path13491-9"
       cx="20.978334"
       cy="27.108961"
       rx="6.2407703"
       ry="6.149404" />
  </g>
</svg>
