<?xml version="1.0" encoding="UTF-8" standalone="no"?>
<!-- Created with Inkscape (http://www.inkscape.org/) -->

<svg
   width="50mm"
   height="50mm"
   viewBox="0 0 50 50"
   version="1.1"
   id="svg1209"
   inkscape:version="1.1.1 (3bf5ae0d25, 2021-09-20)"
   sodipodi:docname="easy.svg"
   xmlns:inkscape="http://www.inkscape.org/namespaces/inkscape"
   xmlns:sodipodi="http://sodipodi.sourceforge.net/DTD/sodipodi-0.dtd"
   xmlns="http://www.w3.org/2000/svg"
   xmlns:svg="http://www.w3.org/2000/svg">
  <sodipodi:namedview
     id="namedview1211"
     pagecolor="#ffffff"
     bordercolor="#666666"
     borderopacity="1.0"
     inkscape:pageshadow="2"
     inkscape:pageopacity="0.0"
     inkscape:pagecheckerboard="0"
     inkscape:document-units="mm"
     showgrid="true"
     inkscape:zoom="2.5620932"
     inkscape:cx="12.489788"
     inkscape:cy="118.06753"
     inkscape:window-width="1920"
     inkscape:window-height="991"
     inkscape:window-x="-9"
     inkscape:window-y="-9"
     inkscape:window-maximized="1"
     inkscape:current-layer="layer1"
     width="50mm">
    <inkscape:grid
       type="xygrid"
       id="grid1274" />
  </sodipodi:namedview>
  <defs
     id="defs1206">
    <inkscape:path-effect
       effect="spiro"
       id="path-effect1311"
       is_visible="true"
       lpeversion="1" />
  </defs>
  <g
     inkscape:label="Слой 1"
     inkscape:groupmode="layer"
     id="layer1">
    <path
       style="fill:#ffe6d5;stroke:none;stroke-width:0.112687;stroke-linecap:butt;stroke-linejoin:miter;stroke-miterlimit:4;stroke-dasharray:none;stroke-opacity:1"
       d="M 34.584822,14.552085 19.465774,27.781251 16.441964,20.431714 C 16.042225,19.426016 15.27303,18.571974 14.314486,18.069565 13.355943,17.567156 12.215965,17.420528 11.161482,17.664014 10.29756,17.863498 9.4948309,18.32061 8.8824407,18.961807 v 1.469907 l 3.0238093,2.939814 3.023809,8.819445 6.04762,8.819444 c 1.344402,0.883035 2.92892,1.396536 4.535713,1.469908 2.09461,0.09565 4.166083,-0.54451 6.047619,-1.469908 3.847387,-1.892264 7.071559,-5.026876 9.071429,-8.819444 0.161206,-0.472161 0.161206,-0.997746 0,-1.469907 -0.235515,-0.689808 -0.818029,-1.246663 -1.511905,-1.469908 -0.589049,-0.189518 -1.250538,-0.142739 -1.807054,0.127789 -0.556516,0.270529 -1.001921,0.761824 -1.216755,1.342119 0.589885,-0.175757 1.101302,-0.600159 1.382806,-1.147526 0.281503,-0.547368 0.329249,-1.210229 0.129099,-1.79229 -0.236965,-0.689123 -0.818404,-1.24608 -1.511905,-1.469906 -0.589018,-0.190104 -1.250794,-0.143611 -1.807445,0.126983 -0.556652,0.270594 -1.002009,0.76229 -1.216364,1.342923 0.587351,-0.179745 1.095466,-0.604591 1.376387,-1.150826 0.280921,-0.546235 0.330949,-1.206669 0.135517,-1.788988 -0.198087,-0.59023 -0.644776,-1.091259 -1.205665,-1.361469 -0.560889,-0.270211 -1.228331,-0.307762 -1.818145,-0.108439 -0.688433,0.23265 -1.259958,0.7883 -1.511905,1.469908 l 7.559525,-7.349537 c 0.156222,-0.473252 0.156222,-0.996656 0,-1.469908 -0.195861,-0.593334 -0.639449,-1.100546 -1.201396,-1.373715 -0.561948,-0.273169 -1.234832,-0.308685 -1.822414,-0.09619"
       id="path1309"
       inkscape:path-effect="#path-effect1311"
       inkscape:original-d="m 34.584822,14.552085 -15.119048,13.229166 -3.02381,-7.349537 c 0,0 -3.264306,-1.787468 -5.280482,-2.7677 -2.0161753,-0.980233 -2.2790413,1.297793 -2.2790413,1.297793 v 1.469907 c 17.7030413,-0.06177 1.5119043,1.959876 3.0238093,2.939814 l 3.023809,8.819445 6.04762,8.819444 c 0,0 3.024111,0.980231 4.535713,1.469908 1.511603,0.489676 4.032049,-0.979643 6.047619,-1.469908 2.015571,-0.490264 9.071429,-8.819444 9.071429,-8.819444 0,0 3.03e-4,-0.979644 0,-1.469907 -3.03e-4,-0.490264 -1.007633,-0.979643 -1.511905,-1.469908 -0.504271,-0.490264 -3.023809,1.469908 -3.023809,1.469908 0,0 1.008237,-1.959584 1.511905,-2.939816 0.503666,-0.980231 -1.007633,-0.979643 -1.511905,-1.469906 -0.504271,-0.490265 -3.023809,1.469906 -3.023809,1.469906 0,0 1.008238,-1.959583 1.511904,-2.939814 0.503666,-0.980232 -2.015571,-0.979645 -3.02381,-1.469908 -1.008238,-0.490263 -1.511905,1.469908 -1.511905,1.469908 l 7.559525,-7.349537 c 0,0 3.02e-4,-0.979644 0,-1.469908 -3.03e-4,-0.490263 -2.015572,-0.979644 -3.02381,-1.469907"
       sodipodi:nodetypes="cccscccccsscsscsscssccsc" />
    <path
       style="fill:#4d4d4d;stroke:#000000;stroke-width:1.20012;stroke-linecap:round;stroke-linejoin:miter;stroke-miterlimit:4;stroke-dasharray:none;stroke-opacity:1"
       d="m 13.418155,8.6724545 6.047619,5.8796305"
       id="path2767" />
    <path
       style="fill:#4d4d4d;stroke:#000000;stroke-width:1.20012;stroke-linecap:round;stroke-linejoin:miter;stroke-miterlimit:4;stroke-dasharray:none;stroke-opacity:1"
       d="M 31.561011,8.6724545 25.513393,14.552084"
       id="path2767-1" />
    <path
       style="fill:#4d4d4d;stroke:#000000;stroke-width:1.20012;stroke-linecap:round;stroke-linejoin:miter;stroke-miterlimit:4;stroke-dasharray:none;stroke-opacity:1"
       d="M 22.489583,5.7326397 V 14.047691"
       id="path2767-4" />
    <path
       style="fill:#4d4d4d;stroke:none;stroke-width:0.51631;stroke-linecap:round;stroke-linejoin:round"
       d="m 69.892408,54.398881 c -1.521721,-1.475844 -6.87187,-6.672734 -11.889221,-11.548645 -9.983762,-9.702319 -9.946464,-9.657754 -9.18724,-10.976891 0.205402,-0.356881 0.705791,-0.812398 1.111976,-1.012259 0.655517,-0.322544 0.813573,-0.33351 1.406345,-0.09758 0.91654,0.364798 23.857688,22.667059 24.22929,23.554529 0.573668,1.370048 -0.452637,2.764195 -2.034867,2.764195 -0.852951,0 -0.922234,-0.05113 -3.636283,-2.683353 z"
       id="path1083"
       transform="scale(0.26458333)" />
    <path
       style="fill:#4d4d4d;stroke:none;stroke-width:0.51631;stroke-linecap:round;stroke-linejoin:round"
       d="m 84.100896,55.023085 c -1.329655,-0.656221 -1.258475,0.345124 -1.258475,-17.703878 v -16.28763 l 0.423072,-0.537849 c 1.014485,-1.289708 2.62586,-1.248956 3.540554,0.08954 0.303051,0.443465 0.329739,1.798645 0.329739,16.744056 0,17.953805 0.06265,17.061055 -1.240603,17.679488 -0.820605,0.389403 -1.034312,0.391341 -1.794287,0.01628 z"
       id="path1122"
       transform="scale(0.26458333)" />
    <path
       style="fill:#4d4d4d;stroke:none;stroke-width:0.51631;stroke-linecap:round;stroke-linejoin:round"
       d="m 94.956915,56.481764 c -0.462099,-0.462099 -0.600471,-0.773218 -0.600471,-1.350111 0,-0.4123 0.05054,-0.881352 0.112319,-1.042335 0.199975,-0.521127 23.512677,-23.051689 24.121837,-23.31256 1.02401,-0.438524 2.43194,0.307541 2.78664,1.47665 0.33851,1.115744 0.15466,1.321547 -10.00692,11.201589 -15.742292,15.30613 -13.903114,13.627237 -14.928239,13.627237 -0.727706,0 -0.991249,-0.106554 -1.485166,-0.60047 z"
       id="path1161"
       transform="scale(0.26458333)" />
  </g>
</svg>
