<?xml version="1.0" encoding="UTF-8" standalone="no"?>
<!-- Created with Inkscape (http://www.inkscape.org/) -->

<svg
   width="50mm"
   height="50mm"
   viewBox="0 0 50 50"
   version="1.1"
   id="svg838"
   inkscape:version="1.1.1 (3bf5ae0d25, 2021-09-20)"
   sodipodi:docname="garnish.svg"
   xmlns:inkscape="http://www.inkscape.org/namespaces/inkscape"
   xmlns:sodipodi="http://sodipodi.sourceforge.net/DTD/sodipodi-0.dtd"
   xmlns="http://www.w3.org/2000/svg"
   xmlns:svg="http://www.w3.org/2000/svg">
  <sodipodi:namedview
     id="namedview840"
     pagecolor="#ffffff"
     bordercolor="#666666"
     borderopacity="1.0"
     inkscape:pageshadow="2"
     inkscape:pageopacity="0.0"
     inkscape:pagecheckerboard="0"
     inkscape:document-units="mm"
     showgrid="false"
     inkscape:zoom="5.1241863"
     inkscape:cx="63.846775"
     inkscape:cy="90.718993"
     inkscape:window-width="2560"
     inkscape:window-height="1351"
     inkscape:window-x="1911"
     inkscape:window-y="-9"
     inkscape:window-maximized="1"
     inkscape:current-layer="layer1"
     inkscape:rotation="1">
    <inkscape:grid
       type="xygrid"
       id="grid1150" />
  </sodipodi:namedview>
  <defs
     id="defs835">
    <inkscape:path-effect
       effect="spiro"
       id="path-effect4999"
       is_visible="true"
       lpeversion="1" />
    <inkscape:path-effect
       effect="spiro"
       id="path-effect1836"
       is_visible="true"
       lpeversion="1" />
    <inkscape:path-effect
       effect="spiro"
       id="path-effect1636"
       is_visible="true"
       lpeversion="1" />
    <inkscape:path-effect
       effect="spiro"
       id="path-effect2802"
       is_visible="true"
       lpeversion="1" />
    <inkscape:path-effect
       effect="spiro"
       id="path-effect2943"
       is_visible="true"
       lpeversion="1" />
    <inkscape:path-effect
       effect="spiro"
       id="path-effect2962"
       is_visible="true"
       lpeversion="1" />
  </defs>
  <g
     inkscape:label="Слой 1"
     inkscape:groupmode="layer"
     id="layer1">
    <path
       style="fill:#cccccc;fill-opacity:1;stroke:none;stroke-width:0.518411px;stroke-linecap:butt;stroke-linejoin:miter;stroke-opacity:1"
       d="M 5.2036527,42.251389 43.890885,27.618162"
       id="path1638" />
    <g
       id="g5217"
       transform="matrix(1.6614214,-0.84388193,0.84639733,1.6711696,-35.159015,15.802853)">
      <g
         id="g3270"
         transform="translate(0.79375,1.322917)">
        <ellipse
           style="fill:#4d4d4d;fill-opacity:1;stroke:none;stroke-width:1.00848;stroke-linecap:round;stroke-miterlimit:4;stroke-dasharray:none;stroke-opacity:1"
           id="path2171-5"
           cx="22.836388"
           cy="-21.521671"
           rx="1.1408041"
           ry="8.6356974"
           transform="matrix(0.34120896,0.93998747,-0.97123417,0.2381264,0,0)"
           inkscape:transform-center-x="3.6696761"
           inkscape:transform-center-y="0.91124932" />
        <path
           style="fill:#4d4d4d;stroke:none;stroke-width:0.985998;stroke-linecap:round;stroke-linejoin:miter;stroke-miterlimit:4;stroke-dasharray:none;stroke-opacity:1"
           d="m 16.727684,17.212867 3.8621,-0.913866 1.082115,-0.023 0.981304,0.699992 0.365547,1.54484 -0.563537,1.06554 -0.925452,0.68508 -3.862101,0.913866 -0.414137,-0.60115 0.205254,-0.281616 3.089681,-0.731093 -0.10444,-0.441383 -3.089681,0.731093 -0.309695,-0.159767 0.205254,-0.281616 3.089681,-0.731092 -0.104439,-0.441384 -3.08968,0.731092 -0.309695,-0.159767 0.205252,-0.281615 3.089681,-0.731093 -0.104439,-0.441384 -3.08968,0.731093 -0.309695,-0.159766 0.100811,-0.723 v 0"
           id="path2263"
           sodipodi:nodetypes="cccccccccccccccccccccccccc" />
      </g>
      <path
         style="fill:none;stroke:#ffcc00;stroke-width:0.265;stroke-linecap:round;stroke-linejoin:miter;stroke-miterlimit:4;stroke-dasharray:none;stroke-opacity:1"
         d="M 17.991666,18.520833 C 18.344709,19.75582 19.05,22.225 19.05,22.225 l 0.144154,0.152581 0.09674,0.02402 0.102835,-0.06296 0.0586,-0.152745"
         id="path3305" />
      <path
         style="fill:none;stroke:#ffcc00;stroke-width:0.265;stroke-linecap:round;stroke-linejoin:miter;stroke-miterlimit:4;stroke-dasharray:none;stroke-opacity:1"
         d="m 20.199087,17.881161 c 0.353043,1.234987 1.058334,3.704167 1.058334,3.704167"
         id="path3305-5"
         sodipodi:nodetypes="cc" />
      <path
         style="fill:none;stroke:#ffcc00;stroke-width:0.265;stroke-linecap:round;stroke-linejoin:miter;stroke-miterlimit:4;stroke-dasharray:none;stroke-opacity:1"
         d="m 18.727473,18.307609 c 0.353043,1.234987 1.058334,3.704167 1.058334,3.704167 l 0.144154,0.152581 0.09674,0.02402 0.102835,-0.06296 0.0586,-0.152745"
         id="path3305-0" />
      <path
         style="fill:none;stroke:#ffcc00;stroke-width:0.265;stroke-linecap:round;stroke-linejoin:miter;stroke-miterlimit:4;stroke-dasharray:none;stroke-opacity:1"
         d="m 19.46328,18.094385 c 0.353043,1.234987 1.058334,3.704167 1.058334,3.704167 l 0.144154,0.152581 0.09674,0.02402 0.102835,-0.06296 0.0586,-0.152745"
         id="path3305-0-9" />
      <path
         style="fill:none;stroke:#ffcc00;stroke-width:0.265;stroke-linecap:round;stroke-linejoin:miter;stroke-miterlimit:4;stroke-dasharray:none;stroke-opacity:1"
         d="m 19.452329,22.185896 c -0.361844,-1.232437 -1.08578,-3.696215 -1.08578,-3.696215 l 0.04026,-0.206012 0.06892,-0.07202 0.120565,-0.0018 0.131179,0.09776"
         id="path3305-2" />
      <path
         style="fill:none;stroke:#ffcc00;stroke-width:0.265;stroke-linecap:round;stroke-linejoin:miter;stroke-miterlimit:4;stroke-dasharray:none;stroke-opacity:1"
         d="m 20.188136,21.972672 c -0.361844,-1.232437 -1.08578,-3.696215 -1.08578,-3.696215 l 0.04026,-0.206012 0.06892,-0.07202 0.120565,-0.0018 0.131179,0.09776"
         id="path3305-2-3" />
      <path
         style="fill:none;stroke:#ffcc00;stroke-width:0.265;stroke-linecap:round;stroke-linejoin:miter;stroke-miterlimit:4;stroke-dasharray:none;stroke-opacity:1"
         d="m 20.923943,21.759448 c -0.361844,-1.232437 -1.08578,-3.696215 -1.08578,-3.696215 l 0.04026,-0.206012 0.06892,-0.07202 0.120565,-0.0018 0.131179,0.09776"
         id="path3305-2-3-0" />
      <path
         style="fill:none;stroke:#ffcc00;stroke-width:0.265;stroke-linecap:round;stroke-linejoin:miter;stroke-miterlimit:4;stroke-dasharray:none;stroke-opacity:1"
         d="m 20.776131,24.905046 c -0.07824,-0.06301 -0.12695,-0.161243 -0.129757,-0.26166 -0.0028,-0.100418 0.04034,-0.201217 0.114937,-0.268501 0.05372,-0.04846 0.120916,-0.0789 0.180832,-0.119445 0.02996,-0.02027 0.05837,-0.04334 0.08119,-0.07141 0.02282,-0.02807 0.03989,-0.06145 0.0452,-0.09723 0.0067,-0.04495 -0.0057,-0.09136 -0.02822,-0.130814 -0.02255,-0.03946 -0.05479,-0.07259 -0.08951,-0.101907 -0.06945,-0.05864 -0.151377,-0.105171 -0.204362,-0.179024 -0.05909,-0.08237 -0.07437,-0.191109 -0.05489,-0.290591 0.01948,-0.09948 0.07104,-0.190416 0.134718,-0.269291 0.127356,-0.157749 0.302813,-0.271767 0.427346,-0.431754 0.120957,-0.155393 0.188657,-0.351479 0.189339,-0.548398 6.81e-4,-0.19692 -0.06566,-0.393469 -0.185539,-0.549696"
         id="path4997"
         inkscape:path-effect="#path-effect4999"
         inkscape:original-d="m 20.776131,24.905046 c -0.0048,-0.177041 -0.0097,-0.353763 -0.01482,-0.530161 -0.0051,-0.1764 0.205008,-0.192376 0.307225,-0.288082 0.102217,-0.0957 -0.214533,-0.274818 -0.322087,-0.411745 -0.10755,-0.136927 0.338305,-0.661412 0.507172,-0.991636 0.168866,-0.330224 0.0027,-0.732384 0.0038,-1.098094" />
    </g>
  </g>
</svg>
