<?xml version="1.0" encoding="UTF-8" standalone="no"?>
<!-- Created with Inkscape (http://www.inkscape.org/) -->

<svg
   width="50mm"
   height="50mm"
   viewBox="0 0 50 50"
   version="1.1"
   id="svg5"
   inkscape:version="1.1.1 (3bf5ae0d25, 2021-09-20)"
   sodipodi:docname="ok.svg"
   xmlns:inkscape="http://www.inkscape.org/namespaces/inkscape"
   xmlns:sodipodi="http://sodipodi.sourceforge.net/DTD/sodipodi-0.dtd"
   xmlns="http://www.w3.org/2000/svg"
   xmlns:svg="http://www.w3.org/2000/svg">
  <sodipodi:namedview
     id="namedview7"
     pagecolor="#ffffff"
     bordercolor="#666666"
     borderopacity="1.0"
     inkscape:pageshadow="2"
     inkscape:pageopacity="0.0"
     inkscape:pagecheckerboard="0"
     inkscape:document-units="mm"
     showgrid="false"
     width="50mm"
     inkscape:zoom="5.1241865"
     inkscape:cx="96.991006"
     inkscape:cy="120.31178"
     inkscape:window-width="2560"
     inkscape:window-height="1351"
     inkscape:window-x="1911"
     inkscape:window-y="-9"
     inkscape:window-maximized="1"
     inkscape:current-layer="layer1"
     inkscape:snap-midpoints="true" />
  <defs
     id="defs2" />
  <g
     inkscape:label="Слой 1"
     inkscape:groupmode="layer"
     id="layer1">
    <ellipse
       style="fill:#666666;stroke:none;stroke-width:0.380087;stroke-linecap:round;stroke-opacity:1"
       id="path4358"
       cx="39.316204"
       cy="4.9355159"
       rx="11.710642"
       ry="14.03106"
       transform="matrix(0.87727132,0.47999483,-0.42823871,0.90366565,0,0)" />
    <path
       style="fill:#ffe6d5;stroke:none;stroke-width:0.325644px;stroke-linecap:butt;stroke-linejoin:miter;stroke-opacity:1"
       d="m 10.147888,26.248368 c 1.412637,-2.482444 1.012272,-3.255971 4.402208,-7.447333 1.109291,-0.298655 1.875449,-0.130043 2.765554,-0.05543 0.537829,0.04508 1.057627,0.277323 1.597215,0.265588 0.719516,-0.01565 1.436868,-0.198219 2.112405,-0.446409 0.412368,-0.151503 0.733303,-0.519311 1.159185,-0.62713 0.437007,-0.110636 0.997226,-0.102477 1.352383,0 0.431907,0.124614 0.671624,0.313913 0.70839,0.62713 0.05659,0.482107 -0.466203,0.878499 -0.837189,1.191547 -0.74468,0.628381 -1.695806,1.015053 -2.640364,1.25426 -0.771016,0.195258 -2.382769,0.125426 -2.382769,0.125426 0,0 -0.858326,0.04213 -1.287984,0.06271 -0.43983,3.92e-4 -0.588306,0.445954 -0.837189,0.815269 -0.216531,0.321309 -2.462561,4.187108 -2.25397,4.656439 0.515367,0.323216 1.017309,0.701824 1.416494,1.164792 0.757615,0.878667 1.407539,1.889417 1.790986,2.984407 0.39569,1.129956 0.483701,2.362687 0.476898,3.559902 -0.0053,0.925734 0.138523,1.995301 -0.400012,2.74829 -0.266613,0.372783 -0.70832,0.522677 -1.223584,0.627131 -0.451364,0.0915 -1.054278,0.04038 -1.352383,-0.313564 -0.971166,-1.153069 0.204622,-3.080381 -0.257595,-4.515334 -0.159488,-0.49513 -0.50992,-0.912644 -0.837189,-1.316977 -1.17337,-1.44967 -4.0822041,-3.157471 -3.992757,-3.919561 0.1212417,-0.632077 0.2626519,-0.975653 0.472656,-1.354794 0.01581,-0.02854 0.232815,-0.458902 0.04861,-0.08636 z"
       id="path1099"
       sodipodi:nodetypes="ccsaaasaaaccscaaaasaaacscc" />
    <path
       style="fill:#ffe6d5;stroke:none;stroke-width:0.357877px;stroke-linecap:butt;stroke-linejoin:miter;stroke-opacity:1"
       d="m 9.3176683,29.126433 c 0,0 -0.154523,0.655905 -0.2369291,0.986154 -0.1594925,0.639178 -0.1638321,1.363554 -0.5477292,1.898914 -0.2599338,0.362488 -0.7027603,0.55852 -1.0987934,0.763754 -1.1558813,0.599005 -2.6323854,0.549158 -3.6704036,1.334897 -0.308242,0.233327 -0.6997049,0.555449 -0.6773934,0.941398 0.036217,0.626498 0.6638766,1.222678 1.2683558,1.391248 1.6531378,0.461007 3.4018856,-0.69354 4.9370944,-1.460694 0.7531422,-0.37635 1.5334052,-0.824796 2.0271982,-1.506727 0.41201,-0.568988 0.666591,-1.999289 0.666591,-1.999289 -0.698828,-0.400602 -2.4154761,-2.217906 -2.6679907,-2.349655 z"
       id="path1101"
       sodipodi:nodetypes="csaaaaaaacc" />
    <ellipse
       style="fill:#ffe6d5;stroke:none;stroke-width:0.301128;stroke-linecap:round;stroke-opacity:1"
       id="path4044"
       cx="17.354519"
       cy="15.205865"
       rx="2.4979403"
       ry="2.6681614" />
  </g>
</svg>
