<?xml version="1.0" encoding="UTF-8" standalone="no"?>
<!-- Created with Inkscape (http://www.inkscape.org/) -->

<svg
   width="50mm"
   height="50mm"
   viewBox="0 0 50 50"
   version="1.1"
   id="svg5"
   inkscape:version="1.1.1 (3bf5ae0d25, 2021-09-20)"
   sodipodi:docname="garnish.svg"
   xmlns:inkscape="http://www.inkscape.org/namespaces/inkscape"
   xmlns:sodipodi="http://sodipodi.sourceforge.net/DTD/sodipodi-0.dtd"
   xmlns="http://www.w3.org/2000/svg"
   xmlns:svg="http://www.w3.org/2000/svg">
  <sodipodi:namedview
     id="namedview7"
     pagecolor="#ffffff"
     bordercolor="#666666"
     borderopacity="1.0"
     inkscape:pageshadow="2"
     inkscape:pageopacity="0.0"
     inkscape:pagecheckerboard="0"
     inkscape:document-units="mm"
     showgrid="false"
     width="50mm"
     height="50mm"
     inkscape:zoom="3.6233469"
     inkscape:cx="100.8901"
     inkscape:cy="120.43237"
     inkscape:window-width="2560"
     inkscape:window-height="1351"
     inkscape:window-x="1911"
     inkscape:window-y="-9"
     inkscape:window-maximized="1"
     inkscape:current-layer="layer1" />
  <defs
     id="defs2">
    <inkscape:path-effect
       effect="spiro"
       id="path-effect23896"
       is_visible="true"
       lpeversion="1" />
    <inkscape:path-effect
       effect="spiro"
       id="path-effect24932"
       is_visible="true"
       lpeversion="1" />
    <inkscape:path-effect
       effect="spiro"
       id="path-effect25749"
       is_visible="true"
       lpeversion="1" />
    <inkscape:path-effect
       effect="spiro"
       id="path-effect26023"
       is_visible="true"
       lpeversion="1" />
    <inkscape:path-effect
       effect="spiro"
       id="path-effect27639"
       is_visible="true"
       lpeversion="1" />
    <inkscape:path-effect
       effect="spiro"
       id="path-effect27223"
       is_visible="true"
       lpeversion="1" />
    <inkscape:path-effect
       effect="spiro"
       id="path-effect27098"
       is_visible="true"
       lpeversion="1" />
    <inkscape:path-effect
       effect="spiro"
       id="path-effect27117"
       is_visible="true"
       lpeversion="1" />
    <inkscape:path-effect
       effect="spiro"
       id="path-effect27418"
       is_visible="true"
       lpeversion="1" />
    <inkscape:path-effect
       effect="spiro"
       id="path-effect27437"
       is_visible="true"
       lpeversion="1" />
    <inkscape:path-effect
       effect="spiro"
       id="path-effect27360"
       is_visible="true"
       lpeversion="1" />
    <inkscape:path-effect
       effect="spiro"
       id="path-effect27252"
       is_visible="true"
       lpeversion="1" />
    <inkscape:path-effect
       effect="spiro"
       id="path-effect27495"
       is_visible="true"
       lpeversion="1" />
    <inkscape:path-effect
       effect="spiro"
       id="path-effect26197"
       is_visible="true"
       lpeversion="1" />
    <inkscape:path-effect
       effect="spiro"
       id="path-effect27069"
       is_visible="true"
       lpeversion="1" />
    <inkscape:path-effect
       effect="spiro"
       id="path-effect27466"
       is_visible="true"
       lpeversion="1" />
    <inkscape:path-effect
       effect="spiro"
       id="path-effect26895"
       is_visible="true"
       lpeversion="1" />
    <inkscape:path-effect
       effect="spiro"
       id="path-effect27146"
       is_visible="true"
       lpeversion="1" />
    <inkscape:path-effect
       effect="spiro"
       id="path-effect27389"
       is_visible="true"
       lpeversion="1" />
  </defs>
  <g
     inkscape:label="Слой 1"
     inkscape:groupmode="layer"
     id="layer1">
    <g
       id="g983"
       transform="matrix(1.3734522,0,0,1.4232458,-76.914326,-2.8451006)">
      <path
         style="fill:#ff9955;stroke:none;stroke-width:0.264583px;stroke-linecap:butt;stroke-linejoin:miter;stroke-opacity:1"
         d="m 59.627139,20.076358 c -0.07583,0.318422 -0.104895,0.649517 -0.06731,0.974679 0.03759,0.325162 0.143056,0.644336 0.322122,0.91834 0.179066,0.274005 0.433151,0.50138 0.732915,0.632851 0.299764,0.131471 0.645056,0.163797 0.959618,0.07328 0.212432,-0.06113 0.406955,-0.17577 0.577658,-0.316215 0.170703,-0.140445 0.318705,-0.306497 0.456291,-0.479512 0.722703,-0.908801 1.161587,-2.004596 1.729274,-3.017488 0.324922,-0.579741 0.697194,-1.139006 1.169244,-1.606813 0.47205,-0.467807 1.050211,-0.842341 1.694728,-1.004428 0.466861,-0.117409 0.9534,-0.121197 1.433446,-0.157243 0.480046,-0.03605 0.971078,-0.109422 1.388835,-0.348634 0.352516,-0.201855 0.631345,-0.509731 0.884632,-0.827313 0.253288,-0.317583 0.489149,-0.651982 0.783953,-0.931452 0.723122,-0.685507 1.730721,-0.977662 2.71267,-1.146785 0.981948,-0.169122 1.990903,-0.241329 2.925566,-0.586627 1.018809,-0.376385 1.891537,-1.055537 2.768796,-1.695891 0.301277,-0.219917 0.609104,-0.440132 0.842646,-0.730976 0.11677,-0.1454219 0.213856,-0.308007 0.274235,-0.4844648 0.06038,-0.1764577 0.08322,-0.3672276 0.0534,-0.5513311 C 81.233338,8.5647667 81.117613,8.3545607 80.954282,8.1947578 80.790951,8.0349548 80.581598,7.9248983 80.359865,7.8696874 79.916398,7.7592655 79.439296,7.8687238 79.038425,8.088174 c -0.606228,0.3318697 -1.060708,0.8976054 -1.673328,1.2175214 -0.658544,0.3438974 -1.429257,0.370278 -2.16076,0.5000792 -0.913574,0.1621087 -1.788573,0.4934034 -2.638702,0.8651244 -0.663914,0.290298 -1.325589,0.609242 -2.038377,0.739579 -0.892629,0.163222 -1.829293,0.02318 -2.70411,0.264269 -0.897019,0.247208 -1.642805,0.873485 -2.263873,1.566326 -0.621069,0.692842 -1.148195,1.4675 -1.793378,2.137944 -0.837979,0.870789 -1.857835,1.548001 -2.715468,2.39944 -0.647809,0.643131 -1.211813,1.409897 -1.42329,2.297901 z"
         id="path23894"
         inkscape:path-effect="#path-effect23896"
         inkscape:original-d="m 59.627139,20.076358 c 6.532419,0.924817 4.057135,-0.0663 1.947347,2.599147 -0.468142,0.591439 0.118075,-0.545259 1.033949,-0.795727 0.915874,-0.250468 1.153115,-2.011394 1.729274,-3.017488 0.576162,-1.006093 1.90958,-1.740563 2.863972,-2.611241 0.954395,-0.870678 1.881786,-0.336986 2.822281,-0.505877 0.940496,-0.16889 1.112655,-1.172245 1.668585,-1.758765 0.555931,-0.58652 3.759088,-1.155343 5.638236,-1.733412 1.879147,-0.578069 1.846127,-1.130329 2.768796,-1.695891 0.922668,-0.5655617 0.940297,-1.2391271 1.170286,-1.7667719 0.229989,-0.527645 -1.647203,-0.4062971 -2.23144,-0.7021581 -0.584237,-0.2958608 -1.115288,0.8119456 -1.673328,1.2175214 -0.558041,0.4055759 -1.440244,0.3336507 -2.16076,0.5000792 -0.720518,0.1664285 -1.75887,0.5770144 -2.638702,0.8651244 -0.879833,0.288111 -1.358654,0.493317 -2.038377,0.739579 -0.679722,0.246261 -1.802476,0.176444 -2.70411,0.264269 -0.901637,0.08783 -2.704568,2.469778 -4.057251,3.70427 -1.352679,1.234492 -1.699005,1.689132 -2.715468,2.39944 -1.016466,0.710307 -2.52421,2.14204 -1.42329,2.297901 z"
         sodipodi:nodetypes="sssssssssssssssssss" />
      <path
         style="fill:#ff9955;stroke:none;stroke-width:0.264583px;stroke-linecap:butt;stroke-linejoin:miter;stroke-opacity:1"
         d="m 61.356096,21.775277 c 1.334749,0.880667 2.753077,1.634599 4.229704,2.248359 1.493544,0.620791 3.042288,1.096937 4.584734,1.583677 1.874119,0.591404 3.742823,1.199849 5.609193,1.81527 2.583222,0.851798 5.162289,1.71707 7.721408,2.638757 0.378775,0.136419 0.759395,0.274695 1.155741,0.345343 0.396346,0.07065 0.813351,0.07077 1.192285,-0.06521 0.44669,-0.160293 0.815797,-0.505204 1.045978,-0.920225 0.230182,-0.415021 0.32725,-0.895974 0.322228,-1.370527 -0.01004,-0.949107 -0.409884,-1.845554 -0.810571,-2.705992 -0.748823,-1.608027 -1.530256,-3.211308 -2.027779,-4.913941 -0.492619,-1.685851 -0.701564,-3.452237 -1.307699,-5.10068 -0.641154,-1.74368 -1.718779,-3.333616 -2.090026,-5.153966 C 80.933212,9.9403926 80.89658,9.6994842 80.800439,9.4789195 80.752369,9.3686371 80.689322,9.264083 80.607207,9.1761623 c -0.08212,-0.087921 -0.183874,-0.158859 -0.297977,-0.196983 -0.192199,-0.064217 -0.408357,-0.030524 -0.588737,0.06182 -0.18038,0.092344 -0.328134,0.2389314 -0.450703,0.400304 -0.245139,0.3227451 -0.402288,0.7129787 -0.691919,0.9964777 -0.190357,0.186327 -0.430285,0.31729 -0.682964,0.401592 -0.252679,0.0843 -0.518481,0.123499 -0.784194,0.142201 -0.531428,0.03741 -1.069516,-0.0054 -1.594619,0.08447 -0.533653,0.09136 -1.034387,0.316552 -1.519139,0.557688 -0.484751,0.241137 -0.96316,0.501545 -1.477233,0.671429 -0.446141,0.147435 -0.912116,0.224299 -1.366786,0.342847 -0.45467,0.118549 -0.90811,0.284411 -1.27139,0.582415 -0.286367,0.234912 -0.503774,0.541022 -0.725167,0.837965 -0.221393,0.296942 -0.455763,0.59365 -0.764056,0.798943 -0.426386,0.283932 -0.95198,0.36644 -1.460037,0.432019 -0.508057,0.06558 -1.032568,0.125945 -1.479886,0.375603 -0.477477,0.26649 -0.817899,0.722157 -1.106497,1.186605 -0.288597,0.464448 -0.544193,0.956231 -0.916065,1.35712 -0.435323,0.469292 -1.011442,0.793202 -1.432251,1.275551 -0.538916,0.617728 -0.781272,1.483288 -0.641493,2.29105 z"
         id="path24930"
         inkscape:path-effect="#path-effect24932"
         inkscape:original-d="m 61.356096,21.775277 c -0.214095,0.763418 2.820067,1.499171 4.229704,2.248359 1.409636,0.749188 3.056755,1.056049 4.584734,1.583677 1.527979,0.527627 3.739727,1.210443 5.609193,1.81527 1.869466,0.604824 5.767717,1.573576 7.721408,2.638757 1.953692,1.065183 1.033551,1.234654 2.348026,0.280138 1.411419,-1.024912 0.839072,-3.559817 0.557635,-4.996744 -1.254849,-6.406868 -1.509672,-3.013691 -2.027779,-4.913941 -0.518106,-1.900248 -0.88912,-3.119368 -1.307699,-5.10068 -0.418579,-1.981312 -1.415415,-3.696136 -2.090026,-5.153966 -0.674611,-1.4578313 -0.20494,-0.5392233 -0.672062,-1.1969677 -0.467122,-0.6577441 -1.153975,0.9726655 -1.731359,1.4586017 -0.577384,0.485936 -2.040922,0.419105 -3.061777,0.628261 -1.020858,0.209156 -1.997316,0.819675 -2.996372,1.229117 -0.999053,0.40944 -1.758518,0.617106 -2.638176,0.925262 -0.879655,0.308157 -0.99255,1.091537 -1.489223,1.636908 -0.496673,0.545372 -1.959684,0.538679 -2.939923,0.807622 -0.980236,0.268943 -1.34811,1.696081 -2.022562,2.543725 -0.674452,0.847643 -0.954569,0.850632 -1.432251,1.275551 -0.477681,0.424919 -0.427397,1.527631 -0.641493,2.29105 z"
         sodipodi:nodetypes="sssssssssssssssssssss" />
      <path
         style="fill:#ffb380;stroke:none;stroke-width:0.252441px;stroke-linecap:butt;stroke-linejoin:miter;stroke-opacity:1"
         d="m 62.608353,21.015412 c 1.276767,0.838629 2.632891,1.556382 4.04434,2.140543 1.428328,0.591146 2.909087,1.044307 4.383811,1.507735 1.79193,0.56311 3.578641,1.142703 5.363375,1.728222 2.470134,0.810378 4.936825,1.632223 7.383022,2.51222 0.362225,0.130307 0.726184,0.262483 1.105185,0.329902 0.379001,0.06742 0.777784,0.0673 1.139941,-0.0632 0.424996,-0.153138 0.776136,-0.481491 0.995339,-0.876489 0.219204,-0.394997 0.31196,-0.852691 0.307614,-1.304414 -0.0087,-0.903447 -0.388235,-1.757248 -0.769756,-2.576231 -0.713567,-1.531762 -1.462226,-3.057117 -1.938913,-4.678302 -0.471823,-1.604643 -0.671958,-3.28672 -1.25039,-4.856087 C 82.759877,13.218754 81.73201,11.705564 81.373489,9.9724972 81.327051,9.7480195 81.29146,9.5186276 81.199408,9.3086916 81.153382,9.2037236 81.093149,9.1042272 81.01483,9.0205445 80.936511,8.9368618 80.839563,8.8693213 80.730879,8.8329279 80.547503,8.7715239 80.341227,8.8033649 80.168913,8.8911439 79.9966,8.9789229 79.855264,9.118454 79.737898,9.2721491 c -0.234733,0.3073902 -0.385696,0.6793125 -0.662502,0.9494359 -0.182245,0.177845 -0.411738,0.302765 -0.653366,0.383128 -0.241628,0.08036 -0.495746,0.117646 -0.74977,0.135357 -0.508049,0.03542 -1.022398,-0.0058 -1.524461,0.07965 -0.510027,0.0868 -0.988813,0.301237 -1.452409,0.530888 -0.463597,0.229651 -0.921182,0.477667 -1.412649,0.639289 -0.426586,0.140285 -0.872005,0.213213 -1.306679,0.325971 -0.434674,0.112757 -0.868215,0.270696 -1.215881,0.554922 -0.273539,0.223625 -0.481623,0.515089 -0.693498,0.797826 -0.211875,0.282738 -0.436085,0.565204 -0.730461,0.760587 -0.407984,0.270786 -0.910454,0.349034 -1.39616,0.411208 -0.485706,0.06217 -0.987128,0.119426 -1.414923,0.357686 -0.455544,0.253715 -0.780914,0.687544 -1.05714,1.1298 -0.276227,0.442256 -0.521222,0.910543 -0.876784,1.291945 -0.416565,0.446838 -0.967199,0.754647 -1.369484,1.214384 -0.514135,0.587561 -0.745915,1.411773 -0.61338,2.181187 z"
         id="path24930-7"
         inkscape:path-effect="#path-effect25749"
         inkscape:original-d="m 62.608353,21.015412 c -0.204713,0.72681 2.696479,1.427282 4.04434,2.140543 1.34786,0.713262 2.922795,1.005409 4.383811,1.507735 1.461017,0.502325 3.575837,1.152398 5.363375,1.728222 1.787538,0.575821 5.514951,1.498118 7.383022,2.51222 1.868073,1.014105 0.988257,1.175448 2.245126,0.266705 1.349564,-0.975764 0.8023,-3.389112 0.533197,-4.757134 C 85.361368,18.314064 85.117712,21.544527 84.622311,19.735401 84.12691,17.926276 83.772156,16.765616 83.371921,14.879314 82.971686,12.993012 82.018535,11.36042 81.373489,9.9724972 80.728442,8.5845736 81.17753,9.4591314 80.730879,8.8329279 80.284229,8.2067247 79.627476,9.758951 79.075396,10.221585 c -0.552081,0.462634 -1.95148,0.399008 -2.927597,0.598134 -0.97612,0.199126 -1.909785,0.780369 -2.865058,1.170177 -0.95527,0.389806 -1.681452,0.587514 -2.52256,0.880893 -0.841105,0.29338 -0.949052,1.039194 -1.423959,1.558413 -0.474906,0.519219 -1.873802,0.512847 -2.811083,0.768894 -0.937278,0.256046 -1.28903,1.614748 -1.933924,2.421745 -0.644895,0.806995 -0.912736,0.809842 -1.369484,1.214384 -0.456747,0.404543 -0.408667,1.454376 -0.61338,2.181187 z"
         sodipodi:nodetypes="sssssssssssssssssssss" />
      <ellipse
         style="fill:#ff5555;fill-opacity:1;fill-rule:evenodd;stroke:none;stroke-width:0.939507;stroke-linecap:round;stroke-miterlimit:4;stroke-dasharray:none;stroke-opacity:1"
         id="path25810"
         cx="72.364449"
         cy="2.7847426"
         rx="3.5311911"
         ry="3.3109102"
         transform="matrix(0.9740354,0.22639576,-0.18782647,0.98220223,0,0)" />
      <ellipse
         style="fill:#ffffff;fill-opacity:1;fill-rule:evenodd;stroke:none;stroke-width:1.57007;stroke-linecap:round;stroke-miterlimit:4;stroke-dasharray:none;stroke-opacity:1"
         id="path26226-8-3-3"
         cx="50.124046"
         cy="51.397305"
         rx="0.1467848"
         ry="0.24497963"
         transform="rotate(-29.879012)"
         inkscape:transform-center-x="0.74305443"
         inkscape:transform-center-y="0.13409423" />
      <ellipse
         style="fill:#ff5555;fill-opacity:1;fill-rule:evenodd;stroke:none;stroke-width:0.624111;stroke-linecap:round;stroke-miterlimit:4;stroke-dasharray:none;stroke-opacity:1"
         id="path25810-8"
         cx="87.795982"
         cy="9.6912251"
         rx="2.4663336"
         ry="2.091897"
         transform="matrix(0.97898747,0.20392041,-0.20868771,0.97798233,0,0)" />
      <ellipse
         style="fill:#ff5555;fill-opacity:1;fill-rule:evenodd;stroke:none;stroke-width:0.436001;stroke-linecap:round;stroke-miterlimit:4;stroke-dasharray:none;stroke-opacity:1"
         id="path25810-8-1"
         cx="32.35498"
         cy="69.876762"
         rx="1.6062012"
         ry="1.5676322"
         transform="matrix(0.59862403,-0.80103013,0.83397175,0.55180714,0,0)" />
      <ellipse
         style="fill:#ff5555;fill-opacity:1;fill-rule:evenodd;stroke:none;stroke-width:0.68725;stroke-linecap:round;stroke-miterlimit:4;stroke-dasharray:none;stroke-opacity:1"
         id="path25810-7"
         cx="79.192101"
         cy="-0.44916826"
         rx="2.6236544"
         ry="2.3844652"
         transform="matrix(0.94961916,0.3134062,-0.28897435,0.95733684,0,0)" />
      <ellipse
         style="fill:#ff5555;fill-opacity:1;fill-rule:evenodd;stroke:none;stroke-width:0.865347;stroke-linecap:round;stroke-miterlimit:4;stroke-dasharray:none;stroke-opacity:1"
         id="path25810-5"
         cx="59.981625"
         cy="-60.444897"
         rx="3.2318728"
         ry="3.0689886"
         transform="matrix(0.49566195,0.86851553,-0.84530645,0.53428176,0,0)" />
      <path
         style="fill:#ffffff;stroke:none;stroke-width:0.0999638px;stroke-linecap:butt;stroke-linejoin:miter;stroke-opacity:1"
         d="m 68.156636,21.078375 c 0.09098,0.04653 0.204917,0.04498 0.294604,-0.004 0.06149,-0.03358 0.11138,-0.08861 0.136921,-0.15385 0.02554,-0.06524 0.02611,-0.14028 -3.09e-4,-0.205174 -0.0318,-0.07813 -0.09917,-0.13692 -0.172396,-0.178799 -0.07322,-0.04188 -0.153558,-0.06953 -0.230255,-0.104646 -0.07917,-0.03625 -0.155409,-0.08084 -0.239676,-0.102758 -0.04213,-0.01096 -0.08615,-0.01605 -0.129389,-0.01098 -0.04324,0.0051 -0.08572,0.02067 -0.119648,0.04796 -0.03421,0.02751 -0.05875,0.06623 -0.07155,0.108221 -0.0128,0.04199 -0.01413,0.08709 -0.0065,0.130306 0.01536,0.08644 0.06551,0.163161 0.124847,0.227859 0.109922,0.119844 0.255528,0.206541 0.413272,0.246069 z"
         id="path26021"
         inkscape:path-effect="#path-effect26023"
         inkscape:original-d="m 68.156636,21.078375 c 0.137779,0.08217 0.196383,-0.0028 0.294604,-0.004 0.09821,-0.0012 0.09105,-0.239504 0.136612,-0.359024 0.04556,-0.119506 -0.26844,-0.189134 -0.402651,-0.283445 -0.134198,-0.09432 -0.325829,-0.044 -0.488713,-0.06578 -0.162906,-0.02177 0.03122,0.310759 0.04685,0.466386 0.01572,0.155612 0.275505,0.163878 0.413272,0.246069 z" />
      <path
         style="fill:#ffffff;stroke:none;stroke-width:0.0669963px;stroke-linecap:butt;stroke-linejoin:miter;stroke-opacity:1"
         d="m 81.571518,17.451356 c -0.05546,-0.034 -0.128157,-0.03799 -0.187006,-0.01026 -0.0442,0.02083 -0.08006,0.05865 -0.09876,0.103794 -0.01869,0.04514 -0.0201,0.09715 -0.0041,0.143316 0.01817,0.05251 0.05721,0.09555 0.1013,0.129373 0.04409,0.03382 0.09363,0.05967 0.14123,0.08833 0.04751,0.02861 0.09389,0.06044 0.146424,0.07821 0.02627,0.0089 0.05397,0.01412 0.08169,0.01312 0.02771,-9.93e-4 0.05545,-0.0084 0.07884,-0.0233 0.02631,-0.01676 0.04634,-0.04262 0.05789,-0.0716 0.01155,-0.02898 0.01483,-0.06093 0.01147,-0.09195 -0.0067,-0.06202 -0.03913,-0.118561 -0.07795,-0.167401 -0.06618,-0.08327 -0.153239,-0.149807 -0.250955,-0.191817 z"
         id="path26021-00"
         inkscape:path-effect="#path-effect27639"
         inkscape:original-d="m 81.571518,17.451356 c -0.08366,-0.06405 -0.124664,-0.0068 -0.187006,-0.01026 -0.06234,-0.0035 -0.06857,0.164849 -0.102874,0.24711 -0.0343,0.08225 0.161682,0.145256 0.24253,0.217703 0.08084,0.07245 0.20464,0.04546 0.30695,0.06803 0.102325,0.02257 -0.0057,-0.22051 -0.0086,-0.330942 -0.0029,-0.110422 -0.167305,-0.12776 -0.250955,-0.191817 z" />
      <path
         style="fill:#ffffff;stroke:none;stroke-width:0.0999638px;stroke-linecap:butt;stroke-linejoin:miter;stroke-opacity:1"
         d="m 73.803607,25.270181 c 0.02517,0.09904 0.101582,0.183563 0.197598,0.218547 0.06583,0.02399 0.140096,0.0251 0.205951,0.0012 0.06586,-0.02392 0.122567,-0.07306 0.153841,-0.135756 0.03765,-0.07549 0.0373,-0.164898 0.02037,-0.247537 -0.01692,-0.08264 -0.04923,-0.161217 -0.07352,-0.241997 -0.02508,-0.08338 -0.04196,-0.170079 -0.08116,-0.247824 -0.0196,-0.03887 -0.04485,-0.07528 -0.07722,-0.104396 -0.03237,-0.02911 -0.07214,-0.05071 -0.115036,-0.05816 -0.04325,-0.0075 -0.08853,-3.59e-4 -0.128511,0.01777 -0.03998,0.01812 -0.07472,0.04691 -0.102095,0.08123 -0.05475,0.06863 -0.07923,0.156955 -0.08861,0.244243 -0.01737,0.16169 0.01371,0.328277 0.08823,0.47282 z"
         id="path26021-9"
         inkscape:path-effect="#path-effect27223"
         inkscape:original-d="m 73.803607,25.270181 c 0.02931,0.15772 0.131819,0.145595 0.197598,0.218547 0.06577,0.07294 0.239961,-0.08984 0.359792,-0.134578 0.119819,-0.04473 -0.03531,-0.326473 -0.05315,-0.489534 -0.01783,-0.163057 -0.182185,-0.273696 -0.273422,-0.410376 -0.09126,-0.136689 -0.212696,0.228706 -0.319217,0.343237 -0.10645,0.114589 0.05894,0.315095 0.08823,0.47282 z" />
      <path
         style="fill:#ffffff;stroke:none;stroke-width:0.0999638px;stroke-linecap:butt;stroke-linejoin:miter;stroke-opacity:1"
         d="m 78.505707,19.305505 c -0.03974,0.09415 -0.02984,0.207662 0.02558,0.293519 0.038,0.05887 0.09653,0.104586 0.163472,0.125277 0.06694,0.02069 0.141816,0.01575 0.204599,-0.01535 0.07559,-0.03744 0.129284,-0.10894 0.165683,-0.185037 0.0364,-0.0761 0.05809,-0.158242 0.08749,-0.237306 0.03035,-0.08161 0.06923,-0.160917 0.08491,-0.246564 0.0078,-0.04282 0.0097,-0.0871 0.0015,-0.129845 -0.0082,-0.04275 -0.0269,-0.08398 -0.0566,-0.115811 -0.02994,-0.0321 -0.07036,-0.05373 -0.113174,-0.06342 -0.04281,-0.0097 -0.08789,-0.0077 -0.130429,0.0031 -0.08508,0.02166 -0.157921,0.07729 -0.218095,0.141213 -0.111465,0.118411 -0.187256,0.26998 -0.215117,0.430196 z"
         id="path26021-7"
         inkscape:path-effect="#path-effect27098"
         inkscape:original-d="m 78.505707,19.305505 c -0.07185,0.143431 0.01719,0.19565 0.02558,0.293519 0.0084,0.09786 0.245533,0.07325 0.368071,0.10993 0.122524,0.03668 0.16895,-0.281581 0.253171,-0.422343 0.08423,-0.140751 0.02,-0.328178 0.02978,-0.49222 0.0098,-0.164065 -0.307635,0.05391 -0.461698,0.08091 -0.154041,0.02708 -0.143244,0.286776 -0.215117,0.430196 z" />
      <path
         style="fill:#ffffff;stroke:none;stroke-width:0.118px;stroke-linecap:butt;stroke-linejoin:miter;stroke-opacity:1"
         d="m 83.005958,20.925369 c 0.115564,-0.08172 0.191014,-0.217622 0.199267,-0.35892 0.0043,-0.07365 -0.0094,-0.14944 -0.04663,-0.213119 -0.03726,-0.06368 -0.09942,-0.114118 -0.171534,-0.12972 -0.05376,-0.01163 -0.110644,-0.0038 -0.161767,0.01653 -0.05112,0.02029 -0.09684,0.05251 -0.137602,0.08945 -0.08152,0.07386 -0.144123,0.166461 -0.224197,0.241886 -0.0886,0.08345 -0.196911,0.144315 -0.282566,0.230786 -0.04283,0.04323 -0.07991,0.0932 -0.101777,0.149994 -0.02187,0.05679 -0.02771,0.120891 -0.0092,0.178859 0.01315,0.04114 0.03819,0.07812 0.07014,0.107175 0.03195,0.02906 0.07066,0.05031 0.111711,0.06371 0.08211,0.0268 0.171756,0.02211 0.255921,0.0027 0.209617,-0.04836 0.395865,-0.190063 0.498375,-0.379191 z"
         id="path26021-0"
         inkscape:path-effect="#path-effect27117"
         inkscape:original-d="m 83.005958,20.925369 c 0.166267,-0.12635 0.132715,-0.239322 0.199267,-0.35892 0.06654,-0.119584 -0.145594,-0.228605 -0.218163,-0.342839 -0.07256,-0.11422 -0.349196,0.231832 -0.523566,0.347863 -0.174367,0.116011 -0.262493,0.373045 -0.393527,0.559639 -0.131041,0.186626 0.291696,0.115657 0.437774,0.173582 0.146125,0.05781 0.332098,-0.252866 0.498375,-0.379191 z" />
      <path
         style="fill:#ffffff;stroke:none;stroke-width:0.0777742px;stroke-linecap:butt;stroke-linejoin:miter;stroke-opacity:1"
         d="m 78.409861,12.467396 c 0.08417,-0.07165 0.161691,-0.151104 0.231258,-0.237002 0.03761,-0.04644 0.07374,-0.09651 0.08764,-0.154633 0.0069,-0.02906 0.008,-0.0598 7.03e-4,-0.08877 -0.0073,-0.02897 -0.02338,-0.05605 -0.04685,-0.07454 -0.02871,-0.02262 -0.067,-0.03115 -0.103379,-0.02759 -0.03638,0.0036 -0.07096,0.01844 -0.1016,0.03837 -0.06128,0.03987 -0.107339,0.09901 -0.16428,0.144855 -0.07107,0.05722 -0.157117,0.09228 -0.234027,0.141369 -0.03845,0.02454 -0.07492,0.05289 -0.104297,0.0878 -0.02938,0.0349 -0.05147,0.07675 -0.05864,0.121807 -0.0074,0.04645 0.0016,0.09513 0.02381,0.136576 0.02224,0.04145 0.05746,0.07558 0.09893,0.09776 0.07133,0.03815 0.161198,0.03933 0.233506,0.0031 0.07231,-0.03625 0.125127,-0.108972 0.137236,-0.188947 z"
         id="path26021-0-5"
         inkscape:path-effect="#path-effect27418"
         inkscape:original-d="m 78.409861,12.467396 c 0.123623,-0.06189 0.154135,-0.158061 0.231258,-0.237002 0.07712,-0.07893 0.02761,-0.212032 0.04149,-0.317943 0.01387,-0.105897 -0.24621,0.103665 -0.369259,0.155639 -0.123047,0.05196 -0.264686,0.233915 -0.396965,0.350975 -0.132292,0.117087 0.08179,0.156143 0.122745,0.23434 0.04102,0.07812 0.247124,-0.124003 0.370742,-0.185868 z" />
      <path
         style="fill:#ffffff;stroke:none;stroke-width:0.118px;stroke-linecap:butt;stroke-linejoin:miter;stroke-opacity:1"
         d="m 83.017641,26.208547 c -0.114382,0.08337 -0.18788,0.220333 -0.194111,0.361734 -0.0032,0.07371 0.0115,0.149291 0.04967,0.212431 0.03817,0.06314 0.101044,0.112684 0.173372,0.127252 0.05392,0.01086 0.110686,0.0022 0.161514,-0.01884 0.05083,-0.02102 0.09608,-0.05389 0.136308,-0.0914 0.08045,-0.07502 0.141726,-0.168507 0.220713,-0.24507 0.08739,-0.08471 0.194826,-0.147117 0.279235,-0.234804 0.0422,-0.04384 0.07856,-0.09434 0.09962,-0.151435 0.02106,-0.0571 0.02598,-0.121275 0.0066,-0.178972 -0.01373,-0.04095 -0.0393,-0.07756 -0.07167,-0.106161 -0.03236,-0.0286 -0.07137,-0.04929 -0.112612,-0.0621 -0.08249,-0.02562 -0.172054,-0.01966 -0.255933,9.63e-4 -0.208903,0.05135 -0.393105,0.195708 -0.492898,0.386282 z"
         id="path26021-0-3"
         inkscape:path-effect="#path-effect27437"
         inkscape:original-d="m 83.017641,26.208547 c -0.164442,0.128716 -0.129277,0.241196 -0.194111,0.361734 -0.06482,0.120524 0.14885,0.226498 0.223046,0.339683 0.07419,0.11317 0.345843,-0.236805 0.518535,-0.355319 0.17269,-0.118493 0.257129,-0.376762 0.38548,-0.565211 0.128358,-0.188482 -0.293321,-0.111472 -0.440213,-0.167301 -0.146937,-0.05571 -0.328446,0.257591 -0.492898,0.386282 z" />
      <path
         style="fill:#ffffff;stroke:none;stroke-width:0.0714669px;stroke-linecap:butt;stroke-linejoin:miter;stroke-opacity:1"
         d="m 78.295118,13.50699 c 0.04336,0.003 0.08769,-0.01398 0.117956,-0.04517 0.03026,-0.03119 0.0459,-0.07602 0.04159,-0.119266 -0.0042,-0.04216 -0.02677,-0.0816 -0.059,-0.10911 -0.03223,-0.02751 -0.07355,-0.04342 -0.115675,-0.04796 -0.07543,-0.0081 -0.150375,0.0189 -0.217808,0.05367 -0.06743,0.03477 -0.130841,0.07778 -0.201388,0.1057 -0.06925,0.0274 -0.144601,0.03994 -0.209661,0.07619 -0.03253,0.01812 -0.06227,0.04241 -0.08248,0.07368 -0.02021,0.03128 -0.03023,0.07001 -0.02294,0.106524 0.0067,0.0336 0.02774,0.06353 0.0553,0.0839 0.02756,0.02037 0.06125,0.03156 0.09534,0.03506 0.06818,0.007 0.135623,-0.01555 0.199863,-0.03943 0.136045,-0.05057 0.26932,-0.108594 0.399027,-0.173723 z"
         id="path26021-0-6"
         inkscape:path-effect="#path-effect27360"
         inkscape:original-d="m 78.295118,13.50699 c 0.133123,-0.05789 0.106259,-0.109643 0.159545,-0.164436 0.05328,-0.05479 -0.116571,-0.104734 -0.174674,-0.157069 -0.05809,-0.05233 -0.279586,0.106212 -0.419196,0.159371 -0.139608,0.05315 -0.210167,0.170907 -0.31508,0.256393 -0.104919,0.0855 0.233548,0.05299 0.350506,0.07953 0.116996,0.02649 0.265897,-0.115848 0.399027,-0.173723 z" />
      <path
         style="fill:#ffffff;stroke:none;stroke-width:0.118px;stroke-linecap:butt;stroke-linejoin:miter;stroke-opacity:1"
         d="m 77.27508,24.588728 c 0.08168,-0.115591 0.107474,-0.268876 0.06812,-0.404833 -0.02051,-0.07087 -0.05868,-0.137756 -0.115051,-0.185357 -0.05637,-0.0476 -0.131794,-0.07442 -0.20498,-0.06507 -0.05456,0.007 -0.105559,0.03337 -0.146987,0.06955 -0.04143,0.03618 -0.07378,0.08181 -0.09988,0.130223 -0.05221,0.09682 -0.08034,0.205003 -0.130666,0.302819 -0.05568,0.108227 -0.137491,0.201735 -0.189395,0.311825 -0.02595,0.05505 -0.04424,0.114521 -0.04591,0.175354 -0.0017,0.06083 0.01421,0.123209 0.05101,0.171678 0.02612,0.0344 0.06206,0.06091 0.101876,0.07764 0.03981,0.01674 0.08339,0.02386 0.126564,0.02279 0.08635,-0.0021 0.169295,-0.03645 0.242163,-0.08282 0.181481,-0.115509 0.30979,-0.31123 0.343338,-0.52372 z"
         id="path26021-0-0"
         inkscape:path-effect="#path-effect27252"
         inkscape:original-d="m 77.27508,24.588728 c 0.114596,-0.174576 0.04528,-0.269885 0.06812,-0.404833 0.02284,-0.134931 -0.213512,-0.166943 -0.320031,-0.250427 -0.106505,-0.08347 -0.25186,0.335038 -0.377537,0.502589 -0.125681,0.167532 -0.123017,0.43924 -0.184302,0.658857 -0.06128,0.219649 0.313569,0.01173 0.470603,0.01761 0.157039,0.0058 0.228725,-0.349164 0.343338,-0.52372 z"
         inkscape:transform-center-x="-0.10631035"
         inkscape:transform-center-y="-0.00093168642" />
      <path
         style="fill:#ffffff;stroke:none;stroke-width:0.0869227px;stroke-linecap:butt;stroke-linejoin:miter;stroke-opacity:1"
         d="m 85.817056,28.08042 c 0.06253,-0.07742 0.08316,-0.186763 0.05313,-0.281644 -0.01669,-0.05272 -0.04862,-0.101168 -0.09315,-0.133954 -0.04453,-0.03279 -0.101867,-0.04899 -0.156469,-0.04027 -0.03912,0.0063 -0.07568,0.02481 -0.106405,0.04982 -0.03073,0.02501 -0.05589,0.0563 -0.07718,0.08971 -0.04258,0.06682 -0.07015,0.142164 -0.110882,0.210125 -0.04394,0.07331 -0.102851,0.137432 -0.140794,0.214022 -0.01897,0.0383 -0.03253,0.07981 -0.03472,0.122488 -0.0022,0.04268 0.0075,0.08665 0.03177,0.121858 0.01926,0.02798 0.04713,0.04964 0.07831,0.06312 0.03118,0.01348 0.06556,0.01894 0.09951,0.01769 0.06789,-0.0025 0.132457,-0.03126 0.189241,-0.06856 0.128678,-0.08452 0.225541,-0.216311 0.267794,-0.364354 z"
         id="path26021-0-0-8"
         inkscape:path-effect="#path-effect27495"
         inkscape:original-d="m 85.817056,28.08042 c 0.08938,-0.121453 0.03532,-0.18776 0.05313,-0.281644 0.01781,-0.09387 -0.166534,-0.116142 -0.249615,-0.174222 -0.08307,-0.05807 -0.196444,0.233086 -0.294469,0.349652 -0.09803,0.116552 -0.09595,0.30558 -0.14375,0.458368 -0.0478,0.152811 0.244575,0.0082 0.367057,0.01225 0.122486,0.004 0.178399,-0.242915 0.267794,-0.364354 z"
         inkscape:transform-center-x="-0.086558407"
         inkscape:transform-center-y="0.0043463803" />
      <path
         style="fill:#ffffff;stroke:none;stroke-width:0.138624px;stroke-linecap:butt;stroke-linejoin:miter;stroke-opacity:1"
         d="m 71.402982,20.422878 c -0.139,0.06825 -0.270501,0.151767 -0.39138,0.248554 -0.09963,0.07977 -0.194472,0.171947 -0.245008,0.289144 -0.02527,0.0586 -0.03873,0.122834 -0.03438,0.186499 0.0044,0.06367 0.02712,0.126644 0.06813,0.175537 0.02923,0.03484 0.0671,0.06199 0.108457,0.08091 0.04136,0.01892 0.08615,0.02977 0.131374,0.03453 0.09045,0.0095 0.181595,-0.005 0.271007,-0.02165 0.119095,-0.02223 0.238196,-0.04866 0.350053,-0.0952 0.111857,-0.04653 0.216895,-0.114333 0.293161,-0.208466 0.07652,-0.09444 0.121751,-0.215122 0.119621,-0.336651 -0.0021,-0.121528 -0.05311,-0.242688 -0.142931,-0.324576 -0.07051,-0.06428 -0.163591,-0.10331 -0.258865,-0.108537 -0.09527,-0.0052 -0.192063,0.02338 -0.269185,0.07957 z"
         id="path26021-3"
         inkscape:path-effect="#path-effect26197"
         inkscape:original-d="m 71.402982,20.422878 c -0.176033,-0.0099 -0.260904,0.165886 -0.39138,0.248554 -0.130457,0.08266 -0.140818,0.434331 -0.211257,0.65118 -0.07044,0.216825 0.340555,0.06277 0.510838,0.09379 0.17027,0.03103 0.428824,-0.20224 0.643214,-0.303663 0.214421,-0.101457 -0.01554,-0.440582 -0.02331,-0.661227 -0.0079,-0.220551 -0.35204,-0.01906 -0.52805,-0.02897 z" />
      <path
         style="fill:#ffffff;stroke:none;stroke-width:0.139572px;stroke-linecap:butt;stroke-linejoin:miter;stroke-opacity:1"
         d="m 80.243453,21.275811 c 0.155233,0.05573 0.303318,0.13133 0.439497,0.224378 0.0978,0.06682 0.191989,0.145661 0.246429,0.250855 0.02722,0.0526 0.04377,0.111249 0.04363,0.170472 -1.48e-4,0.05922 -0.01755,0.118941 -0.05282,0.166515 -0.03047,0.04109 -0.07338,0.07215 -0.120469,0.09213 -0.04709,0.01998 -0.09828,0.02922 -0.149399,0.0312 -0.102234,0.004 -0.203104,-0.02043 -0.303775,-0.03867 -0.129766,-0.02351 -0.261754,-0.03707 -0.388523,-0.07342 -0.126768,-0.03636 -0.250658,-0.09831 -0.33377,-0.200704 -0.06872,-0.08467 -0.105687,-0.194689 -0.101187,-0.303642 0.0045,-0.108954 0.0506,-0.21582 0.127367,-0.293269 0.07654,-0.07722 0.182749,-0.124265 0.29137,-0.129055 0.10862,-0.0048 0.21856,0.03272 0.301599,0.102905 z"
         id="path26021-3-6"
         inkscape:path-effect="#path-effect27069"
         inkscape:original-d="m 80.243453,21.275811 c 0.197675,-0.0089 0.29298,0.149751 0.439497,0.224378 0.146496,0.07462 0.158131,0.392085 0.237231,0.587842 0.0791,0.195735 -0.382425,0.05666 -0.573643,0.08467 -0.191204,0.02801 -0.481545,-0.182569 -0.722293,-0.274127 -0.240783,-0.09159 0.01745,-0.397727 0.02618,-0.596911 0.0088,-0.199099 0.39532,-0.01721 0.592969,-0.02615 z" />
      <path
         style="fill:#ffffff;stroke:none;stroke-width:0.0913689px;stroke-linecap:butt;stroke-linejoin:miter;stroke-opacity:1"
         d="m 83.656134,28.532211 c 0.110727,0.02994 0.217331,0.07509 0.315882,0.133785 0.06248,0.03721 0.123386,0.08158 0.161244,0.14367 0.01893,0.03104 0.03163,0.06623 0.03416,0.102503 0.0025,0.03627 -0.0054,0.07361 -0.0249,0.10433 -0.0198,0.03126 -0.05075,0.05462 -0.085,0.06864 -0.03425,0.01402 -0.07169,0.01909 -0.108687,0.01856 -0.074,-0.0011 -0.145735,-0.02382 -0.218611,-0.03672 -0.09187,-0.01626 -0.186038,-0.01687 -0.277666,-0.03444 -0.04581,-0.0088 -0.09106,-0.02189 -0.132825,-0.04267 -0.04176,-0.02078 -0.08004,-0.04948 -0.108646,-0.08633 -0.03955,-0.05095 -0.05913,-0.116717 -0.05527,-0.181101 0.0039,-0.06438 0.03087,-0.126917 0.07408,-0.174808 0.0531,-0.05886 0.130577,-0.09502 0.209796,-0.09792 0.07922,-0.0029 0.159131,0.02751 0.21639,0.08233 z"
         id="path26021-3-6-0"
         inkscape:path-effect="#path-effect27466"
         inkscape:original-d="m 83.656134,28.532211 c 0.142076,-0.0053 0.210575,0.08929 0.315882,0.133785 0.105292,0.04449 0.113654,0.233782 0.170506,0.350503 0.05685,0.116707 -0.274862,0.03378 -0.412297,0.05048 -0.137425,0.0167 -0.346102,-0.108858 -0.519137,-0.16345 -0.173058,-0.05461 0.01254,-0.237146 0.01881,-0.355909 0.0063,-0.118713 0.284129,-0.01026 0.426186,-0.01559 z" />
      <ellipse
         style="fill:#ffffff;fill-opacity:1;fill-rule:evenodd;stroke:none;stroke-width:1.051;stroke-linecap:round;stroke-miterlimit:4;stroke-dasharray:none;stroke-opacity:1"
         id="path26222"
         cx="67.774101"
         cy="18.958014"
         rx="0.33263665"
         ry="0.34793591" />
      <ellipse
         style="fill:#ffffff;fill-opacity:1;fill-rule:evenodd;stroke:none;stroke-width:1.051;stroke-linecap:round;stroke-miterlimit:4;stroke-dasharray:none;stroke-opacity:1"
         id="path26224"
         cx="73.682884"
         cy="0.87130636"
         rx="0.58153921"
         ry="0.36657947"
         transform="rotate(14.198034)" />
      <ellipse
         style="fill:#ffffff;fill-opacity:1;fill-rule:evenodd;stroke:none;stroke-width:1.051;stroke-linecap:round;stroke-miterlimit:4;stroke-dasharray:none;stroke-opacity:1"
         id="path26224-3"
         cx="77.743401"
         cy="4.5762262"
         rx="0.58153921"
         ry="0.36657947"
         transform="rotate(14.198034)" />
      <ellipse
         style="fill:#ffffff;fill-opacity:1;fill-rule:evenodd;stroke:none;stroke-width:1.051;stroke-linecap:round;stroke-miterlimit:4;stroke-dasharray:none;stroke-opacity:1"
         id="path26226"
         cx="72.574661"
         cy="18.38435"
         rx="0.1157302"
         ry="0.1392283" />
      <ellipse
         style="fill:#ffffff;fill-opacity:1;fill-rule:evenodd;stroke:none;stroke-width:1.051;stroke-linecap:round;stroke-miterlimit:4;stroke-dasharray:none;stroke-opacity:1"
         id="path26226-8"
         cx="79.83033"
         cy="20.138809"
         rx="0.1157302"
         ry="0.1392283" />
      <ellipse
         style="fill:#ffffff;fill-opacity:1;fill-rule:evenodd;stroke:none;stroke-width:1.051;stroke-linecap:round;stroke-miterlimit:4;stroke-dasharray:none;stroke-opacity:1"
         id="path26226-8-2"
         cx="82.122841"
         cy="26.965631"
         rx="0.1157302"
         ry="0.1392283" />
      <ellipse
         style="fill:#ffffff;fill-opacity:1;fill-rule:evenodd;stroke:none;stroke-width:1.36544;stroke-linecap:round;stroke-miterlimit:4;stroke-dasharray:none;stroke-opacity:1"
         id="path26226-8-8"
         cx="48.887375"
         cy="75.427818"
         rx="0.1157302"
         ry="0.23500079"
         transform="rotate(-39.536616)" />
      <ellipse
         style="fill:#ffffff;fill-opacity:1;fill-rule:evenodd;stroke:none;stroke-width:1.57007;stroke-linecap:round;stroke-miterlimit:4;stroke-dasharray:none;stroke-opacity:1"
         id="path26226-8-3"
         cx="54.606163"
         cy="58.411121"
         rx="0.1467848"
         ry="0.24497963"
         transform="rotate(-29.879012)"
         inkscape:transform-center-x="0.74305443"
         inkscape:transform-center-y="0.13409423" />
      <ellipse
         style="fill:#ffffff;fill-opacity:1;fill-rule:evenodd;stroke:none;stroke-width:1.051;stroke-linecap:round;stroke-miterlimit:4;stroke-dasharray:none;stroke-opacity:1"
         id="path26226-85"
         cx="75.906494"
         cy="26.127035"
         rx="0.1157302"
         ry="0.1392283" />
      <path
         style="fill:#ffffff;stroke:none;stroke-width:0.264583px;stroke-linecap:butt;stroke-linejoin:miter;stroke-opacity:1"
         d="m 68.590736,16.909542 c -0.07137,-0.0078 -0.144425,1.09e-4 -0.212434,0.02312 -0.08445,0.02857 -0.162025,0.08169 -0.21127,0.156014 -0.02066,0.03118 -0.03643,0.06678 -0.03768,0.104162 -6.27e-4,0.01869 0.0025,0.03761 0.0099,0.05475 0.0075,0.01714 0.01944,0.03245 0.03485,0.04303 0.01879,0.0129 0.04205,0.01838 0.06484,0.01797 0.02279,-4.07e-4 0.04519,-0.0064 0.06635,-0.01487 0.04233,-0.01692 0.08041,-0.04359 0.123487,-0.05849 0.04915,-0.017 0.102193,-0.01783 0.15419,-0.01885 0.052,-10e-4 0.105142,-0.0026 0.153782,-0.02106 0.04408,-0.01668 0.08319,-0.04752 0.107097,-0.08814 0.0239,-0.04062 0.03178,-0.09101 0.01852,-0.136232 -0.0079,-0.02709 -0.02325,-0.05199 -0.04383,-0.07132 -0.02058,-0.01933 -0.0464,-0.03303 -0.07394,-0.03926 -0.02754,-0.0062 -0.05674,-0.005 -0.08363,0.0036 -0.0269,0.0086 -0.05142,0.02449 -0.07025,0.04553 z"
         id="path26893"
         inkscape:path-effect="#path-effect26895"
         inkscape:original-d="m 68.590736,16.909542 c -0.09082,-0.02074 -0.141359,0.01568 -0.212434,0.02312 -0.07108,0.0074 -0.140581,0.104273 -0.21127,0.156014 -0.07069,0.05174 0.005,0.134893 0.0071,0.201942 0.0021,0.06705 0.17005,-0.03666 0.25468,-0.05539 0.08463,-0.01873 0.205579,-0.02634 0.307972,-0.03991 0.102394,-0.01357 0.08401,-0.149315 0.125617,-0.22437 0.04161,-0.07505 -0.180835,-0.04068 -0.271651,-0.06141 z" />
      <path
         style="fill:#ffffff;stroke:none;stroke-width:0.399267px;stroke-linecap:butt;stroke-linejoin:miter;stroke-opacity:1"
         d="m 82.715848,18.343441 c -0.08758,-0.01555 -0.180361,3.3e-5 -0.258054,0.04334 -0.05733,0.03195 -0.105835,0.07802 -0.147093,0.129063 -0.04126,0.05104 -0.07568,0.107188 -0.109547,0.163408 -0.03724,0.06183 -0.07484,0.126514 -0.08225,0.198309 -0.0037,0.0359 5.78e-4,0.07306 0.01574,0.105805 0.01516,0.03275 0.04172,0.06076 0.07511,0.07446 0.02608,0.0107 0.05531,0.01242 0.08314,0.0079 0.02783,-0.0045 0.05441,-0.01499 0.07947,-0.02791 0.05012,-0.02585 0.09496,-0.06158 0.146762,-0.08385 0.05865,-0.02521 0.12332,-0.03197 0.186861,-0.03818 0.06354,-0.0062 0.128186,-0.0124 0.187248,-0.03664 0.07828,-0.03213 0.143176,-0.09681 0.172908,-0.176031 0.02973,-0.07922 0.02299,-0.171893 -0.02031,-0.244583 -0.03238,-0.05435 -0.08433,-0.09675 -0.144054,-0.117583 -0.05973,-0.02084 -0.126779,-0.01995 -0.185934,0.0025 z"
         id="path26893-5"
         inkscape:path-effect="#path-effect27146"
         inkscape:original-d="m 82.715848,18.343441 c -0.110323,-0.03887 -0.171715,0.02939 -0.258054,0.04334 -0.08634,0.01388 -0.17077,0.195474 -0.25664,0.292471 -0.08587,0.09699 0.0061,0.252876 0.0086,0.37857 0.0026,0.125689 0.206568,-0.06873 0.309372,-0.103843 0.102805,-0.03512 0.249727,-0.04938 0.374109,-0.07482 0.124383,-0.02543 0.102051,-0.279912 0.152593,-0.420614 0.05055,-0.140692 -0.219669,-0.07626 -0.329988,-0.115116 z" />
      <path
         style="fill:#ffffff;stroke:none;stroke-width:0.277155px;stroke-linecap:butt;stroke-linejoin:miter;stroke-opacity:1"
         d="m 76.599368,12.714008 c -0.0083,0.05541 0.0053,0.113821 0.03723,0.159844 0.02664,0.03837 0.06477,0.06743 0.105135,0.09094 0.04036,0.02351 0.0834,0.04204 0.124837,0.0636 0.05043,0.02623 0.100357,0.05758 0.156808,0.06422 0.02823,0.0033 0.05771,10e-7 0.08305,-0.01286 0.02534,-0.01287 0.04609,-0.03591 0.05295,-0.06349 0.0043,-0.0174 0.0031,-0.0359 -0.0017,-0.05318 -0.0048,-0.01728 -0.01306,-0.03343 -0.02264,-0.04859 -0.01917,-0.03032 -0.04381,-0.05714 -0.0604,-0.08894 -0.01857,-0.03559 -0.02621,-0.07573 -0.0331,-0.115278 -0.0069,-0.03955 -0.01344,-0.07973 -0.03014,-0.116241 -0.02691,-0.05883 -0.08071,-0.104817 -0.143165,-0.121688 -0.06245,-0.01687 -0.132346,-0.0041 -0.184477,0.03419 -0.03165,0.02326 -0.0567,0.05541 -0.07149,0.0918 -0.0148,0.03638 -0.0193,0.07689 -0.01287,0.115638 z"
         id="path26893-5-9"
         inkscape:path-effect="#path-effect27389"
         inkscape:original-d="m 76.599368,12.714008 c -0.02851,0.06935 0.0252,0.106352 0.03723,0.159844 0.01197,0.05349 0.153695,0.102815 0.229972,0.154543 0.07628,0.05172 0.195584,-0.0083 0.292804,-0.01213 0.09721,-0.0038 -0.05613,-0.12735 -0.08477,-0.190711 -0.02864,-0.06336 -0.04178,-0.154555 -0.06324,-0.231519 -0.02146,-0.07696 -0.218045,-0.05855 -0.327642,-0.0875 -0.109585,-0.02896 -0.05587,0.138078 -0.08436,0.207433 z" />
    </g>
  </g>
</svg>
